<svg version="1.2" xmlns="http://www.w3.org/2000/svg" viewBox="0 0 224 279" width="224" height="279">
	<style>
		.s0 { fill: #1d2c35 } 
		.s1 { fill: #ffffff } 
		.s2 { fill: #221638 } 
		.s3 { fill: #f42c52 } 
	</style>
	<g id="Layer 1">
		<path id="&lt;Path&gt;" class="s0" d="m397.54 723h-805.82v-811h805.82z"/>
		<g id="&lt;Group&gt;">
			<path id="&lt;Compound Path&gt;" class="s1" d="m-17.77 398.75q-1.63 0-3.04-0.59-1.4-0.58-2.44-1.71-1.03-1.12-1.63-2.77-0.6-1.64-0.6-3.76 0-2.13 0.65-3.77 0.64-1.65 1.72-2.77 1.07-1.12 2.49-1.7 1.41-0.57 2.95-0.57 0.95 0 1.73 0.12 0.78 0.13 1.37 0.31 0.58 0.18 1 0.36 0.41 0.19 0.63 0.33l-0.54 1.44q-0.61-0.37-1.54-0.72-0.94-0.35-2.33-0.35-1.59 0-2.77 0.53-1.19 0.54-1.99 1.52-0.81 0.97-1.21 2.31-0.4 1.35-0.4 2.98 0 1.68 0.4 3.04 0.4 1.35 1.19 2.3 0.77 0.96 1.91 1.47 1.13 0.51 2.6 0.51 1.61 0 2.69-0.31 1.09-0.3 1.65-0.62l0.46 1.42q-0.17 0.12-0.58 0.28-0.42 0.16-1.05 0.33-0.64 0.16-1.47 0.28-0.82 0.11-1.85 0.11z"/>
			<path id="&lt;Compound Path&gt;" fill-rule="evenodd" class="s1" d="m9.11 389.92q0 2.17-0.63 3.82-0.64 1.66-1.72 2.78-1.09 1.1-2.53 1.66-1.43 0.57-3.05 0.57-1.61 0-3.04-0.57-1.44-0.56-2.53-1.66-1.08-1.12-1.72-2.78-0.63-1.65-0.63-3.82 0-2.17 0.63-3.82 0.64-1.65 1.72-2.76 1.09-1.11 2.53-1.67 1.43-0.56 3.04-0.56 1.62 0 3.05 0.56 1.44 0.56 2.53 1.67 1.08 1.11 1.72 2.76 0.63 1.65 0.63 3.82zm-1.75 0q0-1.71-0.44-3.06-0.44-1.36-1.25-2.31-0.8-0.95-1.94-1.45-1.13-0.5-2.55-0.5-1.41 0-2.54 0.5-1.14 0.5-1.94 1.45-0.81 0.95-1.25 2.31-0.44 1.35-0.44 3.06 0 1.7 0.44 3.06 0.44 1.35 1.25 2.3 0.8 0.96 1.94 1.47 1.13 0.51 2.54 0.51 1.42 0 2.55-0.51 1.14-0.51 1.94-1.47 0.81-0.95 1.25-2.3 0.44-1.36 0.44-3.06z"/>
			<path id="&lt;Compound Path&gt;" class="s1" d="m24.53 395.94q-0.25-0.61-0.7-1.61-0.45-1-1.02-2.18-0.56-1.18-1.15-2.44-0.59-1.26-1.13-2.36-0.54-1.09-0.95-1.92-0.42-0.83-0.61-1.17-0.32 3.05-0.5 6.62-0.19 3.57-0.33 7.5h-1.64q0.22-4.61 0.5-8.83 0.28-4.22 0.7-8.07h1.46q0.73 1.22 1.57 2.81 0.83 1.6 1.65 3.32 0.81 1.72 1.58 3.39 0.77 1.67 1.36 3.01 0.59-1.34 1.36-3.01 0.77-1.67 1.59-3.39 0.82-1.72 1.65-3.32 0.83-1.59 1.56-2.81h1.39q0.41 3.85 0.69 8.07 0.29 4.22 0.51 8.83h-1.69q-0.14-3.93-0.33-7.5-0.18-3.57-0.5-6.62-0.19 0.34-0.61 1.17-0.41 0.83-0.95 1.92-0.53 1.1-1.12 2.36-0.59 1.26-1.15 2.44-0.56 1.18-1.01 2.18-0.45 1-0.69 1.61z"/>
			<path id="&lt;Compound Path&gt;" fill-rule="evenodd" class="s1" d="m46.38 381.33q3.59 0 5.35 1.37 1.75 1.36 1.75 3.87 0 1.44-0.51 2.46-0.51 1.01-1.46 1.63-0.95 0.62-2.33 0.9-1.38 0.28-3.11 0.28h-2.3v6.54h-1.66v-16.59q0.88-0.24 2.07-0.35 1.18-0.11 2.2-0.11zm0.08 1.44q-0.93 0-1.58 0.06-0.64 0.06-1.11 0.11v7.46h2.1q1.34 0 2.43-0.15 1.08-0.16 1.85-0.59 0.77-0.43 1.18-1.18 0.42-0.76 0.42-1.93 0-1.12-0.45-1.85-0.45-0.73-1.2-1.16-0.74-0.43-1.69-0.6-0.95-0.17-1.95-0.17z"/>
			<path id="&lt;Compound Path&gt;" fill-rule="evenodd" class="s1" d="m71.09 398.38q-0.48-1.24-0.89-2.4-0.4-1.14-0.77-2.24h-8.26q-0.42 1.1-0.83 2.25-0.4 1.15-0.86 2.39h-1.73q0.96-2.64 1.82-4.92 0.86-2.28 1.68-4.31 0.82-2.04 1.64-3.91 0.81-1.88 1.7-3.76h1.47q0.89 1.87 1.69 3.75 0.81 1.88 1.63 3.91 0.83 2.04 1.68 4.32 0.85 2.29 1.86 4.92zm-5.81-15q-0.92 2.1-1.79 4.27-0.87 2.17-1.8 4.68h7.21q-0.93-2.51-1.82-4.68-0.89-2.17-1.8-4.27z"/>
			<path id="&lt;Compound Path&gt;" class="s1" d="m90.95 398.38q-0.47-0.85-1.18-2-0.71-1.15-1.58-2.45-0.87-1.3-1.81-2.68-0.95-1.38-1.88-2.69-0.94-1.3-1.84-2.45-0.89-1.14-1.59-1.97v14.24h-1.63v-16.9h1.31q1.25 1.39 2.67 3.21 1.42 1.82 2.79 3.71 1.37 1.89 2.55 3.69 1.19 1.8 1.95 3.14v-13.75h1.63v16.9z"/>
			<path id="&lt;Compound Path&gt;" class="s1" d="m104.78 398.38v-6.95q-1.74-2.66-3.2-5.14-1.45-2.47-2.7-4.81h1.92q1.03 2.14 2.27 4.35 1.23 2.21 2.58 4.21 1.29-2 2.54-4.21 1.25-2.21 2.3-4.35h1.8q-1.29 2.31-2.73 4.81-1.44 2.5-3.12 5.09v7z"/>
			<path id="&lt;Compound Path&gt;" class="s1" d="m132.1 397.31q1.98 0 3.07-0.72 1.1-0.73 1.1-2.34 0-0.93-0.35-1.55-0.36-0.63-0.94-1.05-0.59-0.43-1.34-0.73-0.76-0.31-1.59-0.65-1.05-0.41-1.88-0.84-0.83-0.44-1.41-0.99-0.59-0.55-0.89-1.26-0.31-0.7-0.31-1.65 0-2.17 1.44-3.3 1.44-1.12 4-1.12 0.69 0 1.34 0.1 0.66 0.1 1.24 0.25 0.57 0.16 1.05 0.36 0.47 0.19 0.79 0.41l-0.59 1.39q-0.71-0.48-1.72-0.78-1.01-0.29-2.18-0.29-0.81 0-1.48 0.16-0.67 0.16-1.16 0.51-0.48 0.35-0.76 0.89-0.28 0.54-0.28 1.29 0 0.78 0.29 1.32 0.29 0.54 0.82 0.93 0.52 0.39 1.23 0.7 0.7 0.32 1.53 0.66 1 0.42 1.9 0.83 0.89 0.42 1.54 0.98 0.66 0.56 1.05 1.37 0.39 0.8 0.39 1.97 0 2.29-1.6 3.44-1.59 1.15-4.33 1.15-0.97 0-1.78-0.12-0.8-0.13-1.43-0.31-0.64-0.18-1.08-0.38-0.44-0.2-0.68-0.34l0.54-1.44q0.24 0.15 0.65 0.34 0.42 0.2 0.98 0.38 0.56 0.19 1.27 0.3 0.71 0.13 1.56 0.13z"/>
			<path id="&lt;Compound Path&gt;" class="s1" d="m154.79 396.94v1.44h-9.62v-16.9h1.66v15.46z"/>
			<path id="&lt;Compound Path&gt;" fill-rule="evenodd" class="s1" d="m175.86 389.92q0 2.17-0.63 3.82-0.64 1.66-1.72 2.78-1.09 1.1-2.53 1.66-1.44 0.57-3.05 0.57-1.61 0-3.05-0.57-1.44-0.56-2.52-1.66-1.09-1.12-1.72-2.78-0.64-1.65-0.64-3.82 0-2.17 0.64-3.82 0.63-1.65 1.72-2.76 1.08-1.11 2.52-1.67 1.44-0.56 3.05-0.56 1.61 0 3.05 0.56 1.44 0.56 2.53 1.67 1.08 1.11 1.72 2.76 0.63 1.65 0.63 3.82zm-1.76 0q0-1.71-0.43-3.06-0.44-1.36-1.25-2.31-0.8-0.95-1.94-1.45-1.13-0.5-2.55-0.5-1.41 0-2.55 0.5-1.13 0.5-1.93 1.45-0.81 0.95-1.25 2.31-0.44 1.35-0.44 3.06 0 1.7 0.44 3.06 0.44 1.35 1.25 2.3 0.8 0.96 1.93 1.47 1.14 0.51 2.55 0.51 1.42 0 2.55-0.51 1.14-0.51 1.94-1.47 0.81-0.95 1.25-2.3 0.43-1.36 0.43-3.06z"/>
			<path id="&lt;Compound Path&gt;" class="s1" d="m194.2 390.38h1.66v7.54q-0.46 0.19-1.81 0.5-1.36 0.3-3.33 0.3-1.66 0-3.08-0.59-1.41-0.58-2.45-1.69-1.04-1.11-1.62-2.76-0.59-1.64-0.59-3.76 0-2.13 0.64-3.77 0.63-1.65 1.72-2.76 1.08-1.11 2.52-1.69 1.44-0.59 3.08-0.59 1.87 0 3.09 0.4 1.22 0.41 1.78 0.77l-0.56 1.42q-0.68-0.49-1.85-0.8-1.17-0.3-2.54-0.3-1.27 0-2.39 0.46-1.12 0.47-1.95 1.39-0.83 0.93-1.3 2.3-0.48 1.36-0.48 3.17 0 1.68 0.39 3.03 0.39 1.36 1.18 2.32 0.8 0.96 1.97 1.48 1.17 0.51 2.7 0.51 1.25 0 2.09-0.14 0.84-0.13 1.13-0.25z"/>
			<path id="&lt;Compound Path&gt;" fill-rule="evenodd" class="s1" d="m215.21 398.38q-0.49-1.24-0.89-2.4-0.41-1.14-0.78-2.24h-8.26q-0.42 1.1-0.83 2.25-0.4 1.15-0.85 2.39h-1.74q0.97-2.64 1.82-4.92 0.86-2.28 1.68-4.31 0.83-2.04 1.64-3.91 0.81-1.88 1.71-3.76h1.46q0.89 1.87 1.69 3.75 0.81 1.88 1.63 3.91 0.83 2.04 1.68 4.32 0.85 2.29 1.87 4.92zm-5.82-15q-0.92 2.1-1.79 4.27-0.87 2.17-1.8 4.68h7.22q-0.94-2.51-1.83-4.68-0.88-2.17-1.8-4.27z"/>
			<path id="&lt;Compound Path&gt;" class="s1" d="m235.06 398.38q-0.47-0.85-1.18-2-0.71-1.15-1.58-2.45-0.87-1.3-1.81-2.68-0.95-1.38-1.88-2.69-0.94-1.3-1.84-2.45-0.89-1.14-1.59-1.97v14.24h-1.63v-16.9h1.32q1.24 1.39 2.66 3.21 1.42 1.82 2.79 3.71 1.37 1.89 2.55 3.69 1.19 1.8 1.95 3.14v-13.75h1.63v16.9z"/>
		</g>
		<g id="&lt;Group&gt;">
		</g>
		<path id="&lt;Path&gt;" class="s2" d="m141.41 166.52c0-16.12-13.07-29.19-29.2-29.19-16.12 0-29.19 13.07-29.19 29.19 0 16.13 13.07 29.2 29.19 29.2 16.13 0 29.2-13.07 29.2-29.2z"/>
		<g id="&lt;Group&gt;">
			<path id="&lt;Path&gt;" class="s3" d="m33.06 166.99c0 43.79 35.62 79.41 79.41 79.41 43.78 0 79.4-35.62 79.4-79.41 0-43.78-35.62-79.4-79.4-79.4-13.24 0-25.72 3.27-36.7 9.02 6.24 14.08 20.31 23.9 36.7 23.9 25.6 0 46.36 20.76 46.36 46.37 0 25.6-20.76 46.36-46.36 46.36-26.39 0-47.59-22.04-46.31-48.63l-0.22-0.09c0-6.44 0-35.67 0-61.81-19.91 14.45-32.88 37.87-32.88 64.28z"/>
			<path id="&lt;Path&gt;" class="s2" d="m72.31 67.28v13.08c0 3.29 0.45 6.48 1.19 9.54 11.72-5.95 24.96-9.32 38.97-9.32 47.65 0 86.41 38.76 86.41 86.41 0 47.65-38.76 86.42-86.41 86.42-47.65 0-86.42-38.77-86.42-86.42 0-30.52 15.93-57.38 39.89-72.75 0-16.32 0-30.14 0-34.38 0-32.83-27.24-59.44-60.84-59.44v166.45c0 59.3 48.07 107.37 107.37 107.37 59.29 0 107.36-48.07 107.36-107.37 0-76.08-77.14-128-147.52-99.59z"/>
		</g>
	</g>
</svg>